<svg width="32" height="32" viewBox="0 0 32 32" fill="none" xmlns="http://www.w3.org/2000/svg">
<path d="M26.1012 4.65368C25.763 4.66166 25.4417 4.80323 25.2075 5.04743L16.0325 14.2224L6.8575 5.04743C6.73817 4.92443 6.59537 4.82665 6.43755 4.75987C6.27973 4.69309 6.11011 4.65868 5.93875 4.65868C5.68395 4.65874 5.43498 4.73483 5.22368 4.87721C5.01239 5.01959 4.84839 5.22179 4.75267 5.45792C4.65696 5.69405 4.63389 5.95337 4.68641 6.20269C4.73893 6.452 4.86466 6.67998 5.0475 6.85743L14.2225 16.0324L5.0475 25.2074C4.92465 25.3254 4.82658 25.4666 4.75901 25.623C4.69145 25.7793 4.65576 25.9475 4.65403 26.1178C4.6523 26.2881 4.68456 26.457 4.74893 26.6147C4.8133 26.7724 4.90848 26.9156 5.0289 27.036C5.14932 27.1564 5.29256 27.2516 5.45022 27.316C5.60789 27.3804 5.77681 27.4126 5.94711 27.4109C6.1174 27.4092 6.28563 27.3735 6.44195 27.3059C6.59828 27.2383 6.73955 27.1403 6.8575 27.0174L16.0325 17.8424L25.2075 27.0174C25.3254 27.1403 25.4667 27.2383 25.623 27.3059C25.7794 27.3735 25.9476 27.4092 26.1179 27.4109C26.2882 27.4126 26.4571 27.3804 26.6148 27.316C26.7724 27.2516 26.9157 27.1564 27.0361 27.036C27.1565 26.9156 27.2517 26.7724 27.3161 26.6147C27.3804 26.457 27.4127 26.2881 27.411 26.1178C27.4092 25.9475 27.3735 25.7793 27.306 25.623C27.2384 25.4666 27.1403 25.3254 27.0175 25.2074L17.8425 16.0324L27.0175 6.85743C27.2038 6.67883 27.3317 6.4481 27.3845 6.19552C27.4373 5.94293 27.4126 5.68027 27.3135 5.442C27.2145 5.20372 27.0457 5.00094 26.8294 4.86027C26.613 4.71959 26.3592 4.64758 26.1012 4.65368Z" fill="#E6E6E6"/>
</svg>
