<svg width="35" height="32" viewBox="0 0 35 32" fill="none" xmlns="http://www.w3.org/2000/svg">
<path d="M3.92074 5.12C3.73771 5.1176 3.55598 5.14894 3.38612 5.21219C3.21627 5.27544 3.06167 5.36934 2.93132 5.48844C2.80097 5.60753 2.69746 5.74945 2.62681 5.90594C2.55616 6.06243 2.51978 6.23037 2.51978 6.4C2.51978 6.56963 2.55616 6.73757 2.62681 6.89406C2.69746 7.05055 2.80097 7.19247 2.93132 7.31157C3.06167 7.43066 3.21627 7.52456 3.38612 7.58781C3.55598 7.65106 3.73771 7.6824 3.92074 7.68H31.5466C31.7297 7.6824 31.9114 7.65106 32.0813 7.58781C32.2511 7.52456 32.4057 7.43066 32.5361 7.31157C32.6664 7.19247 32.7699 7.05055 32.8406 6.89406C32.9112 6.73757 32.9476 6.56963 32.9476 6.4C32.9476 6.23037 32.9112 6.06243 32.8406 5.90594C32.7699 5.74945 32.6664 5.60753 32.5361 5.48844C32.4057 5.36934 32.2511 5.27544 32.0813 5.21219C31.9114 5.14894 31.7297 5.1176 31.5466 5.12H3.92074ZM3.92074 14.72C3.73771 14.7176 3.55598 14.7489 3.38612 14.8122C3.21627 14.8754 3.06167 14.9693 2.93132 15.0884C2.80097 15.2075 2.69746 15.3495 2.62681 15.5059C2.55616 15.6624 2.51978 15.8304 2.51978 16C2.51978 16.1696 2.55616 16.3376 2.62681 16.4941C2.69746 16.6506 2.80097 16.7925 2.93132 16.9116C3.06167 17.0307 3.21627 17.1246 3.38612 17.1878C3.55598 17.2511 3.73771 17.2824 3.92074 17.28H31.5466C31.7297 17.2824 31.9114 17.2511 32.0813 17.1878C32.2511 17.1246 32.4057 17.0307 32.5361 16.9116C32.6664 16.7925 32.7699 16.6506 32.8406 16.4941C32.9112 16.3376 32.9476 16.1696 32.9476 16C32.9476 15.8304 32.9112 15.6624 32.8406 15.5059C32.7699 15.3495 32.6664 15.2075 32.5361 15.0884C32.4057 14.9693 32.2511 14.8754 32.0813 14.8122C31.9114 14.7489 31.7297 14.7176 31.5466 14.72H3.92074ZM3.92074 24.32C3.73771 24.3176 3.55598 24.3489 3.38612 24.4122C3.21627 24.4754 3.06167 24.5693 2.93132 24.6884C2.80097 24.8075 2.69746 24.9495 2.62681 25.1059C2.55616 25.2624 2.51978 25.4304 2.51978 25.6C2.51978 25.7696 2.55616 25.9376 2.62681 26.0941C2.69746 26.2506 2.80097 26.3925 2.93132 26.5116C3.06167 26.6307 3.21627 26.7246 3.38612 26.7878C3.55598 26.8511 3.73771 26.8824 3.92074 26.88H31.5466C31.7297 26.8824 31.9114 26.8511 32.0813 26.7878C32.2511 26.7246 32.4057 26.6307 32.5361 26.5116C32.6664 26.3925 32.7699 26.2506 32.8406 26.0941C32.9112 25.9376 32.9476 25.7696 32.9476 25.6C32.9476 25.4304 32.9112 25.2624 32.8406 25.1059C32.7699 24.9495 32.6664 24.8075 32.5361 24.6884C32.4057 24.5693 32.2511 24.4754 32.0813 24.4122C31.9114 24.3489 31.7297 24.3176 31.5466 24.32H3.92074Z" fill="#E6E6E6"/>
</svg>
