<svg width="40" height="40" viewBox="0 0 40 40" fill="none" xmlns="http://www.w3.org/2000/svg">
<path d="M39.5 20C39.5 30.7696 30.7695 39.5 20 39.5C9.23044 39.5 0.5 30.7696 0.5 20C0.5 9.23045 9.23044 0.5 20 0.5C30.7695 0.5 39.5 9.23045 39.5 20Z" stroke="#E6E7FC"/>
<g clip-path="url(#clip0_239_2483)">
<path d="M29.5835 8.00152C29.3177 8.01435 29.0589 8.0957 28.8255 8.19845C28.5946 8.30052 27.2648 8.9246 25.3011 9.84777C23.3374 10.7709 20.7848 11.9731 18.2544 13.1651C13.1936 15.5493 8.22055 17.895 8.22055 17.895L8.2568 17.8798C8.2568 17.8798 7.95665 17.9901 7.65234 18.2233C7.50018 18.3398 7.33649 18.4903 7.20246 18.7097C7.06843 18.9291 6.97044 19.2401 7.00737 19.569C7.13707 20.7242 8.22588 21.0518 8.22588 21.0518L8.23015 21.0542L13.0893 22.8828C13.2132 23.3373 14.5631 28.2914 14.86 29.3406C15.024 29.9206 15.1775 30.2552 15.3376 30.4835C15.4178 30.5977 15.5017 30.6861 15.5946 30.7508C15.6314 30.7764 15.6702 30.7957 15.7086 30.8129H15.7108C15.7155 30.8152 15.7199 30.8154 15.7246 30.8176L15.7118 30.8141C15.7207 30.818 15.7295 30.8247 15.7385 30.8281C15.7558 30.8348 15.7664 30.8346 15.7886 30.8398C16.3451 31.0535 16.8056 30.657 16.8056 30.657L16.8248 30.6406L19.8098 27.5963L24.654 31.7495L24.7148 31.78C25.5627 32.1939 26.3295 31.963 26.7542 31.583C27.1788 31.2031 27.3458 30.7132 27.3458 30.7132L27.364 30.6617L30.9236 10.2616C31.0146 9.80516 31.0276 9.41066 30.9417 9.05417C30.8558 8.69769 30.6471 8.3878 30.3852 8.21604C30.1233 8.04428 29.8494 7.9887 29.5835 8.00152ZM29.6123 9.2218C29.7203 9.2163 29.8003 9.22987 29.8255 9.24642C29.8507 9.26296 29.8621 9.26078 29.8863 9.36129C29.9105 9.46181 29.9236 9.67351 29.8575 10.0048L29.8554 10.0119L26.316 30.2936C26.3076 30.314 26.2339 30.5016 26.0655 30.6523C25.8937 30.806 25.7026 30.926 25.1956 30.6921L19.8983 26.1498L19.749 26.0209L19.7458 26.0244L18.1616 24.7174L27.0644 13.2003C27.1328 13.112 27.1765 13.0039 27.1902 12.8889C27.2039 12.7739 27.187 12.657 27.1415 12.5524C27.0961 12.4477 27.024 12.3598 26.9341 12.2992C26.8442 12.2386 26.7402 12.208 26.6348 12.211C26.5317 12.2139 26.4316 12.2489 26.3459 12.3118L13.4635 21.7552L8.59688 19.923C8.59688 19.923 8.11362 19.6273 8.09049 19.4213C8.08921 19.4099 8.0835 19.4202 8.10862 19.3791C8.13373 19.338 8.19685 19.2686 8.27599 19.2079C8.43427 19.0867 8.615 19.0133 8.615 19.0133L8.63312 19.0063L8.65124 18.9981C8.65124 18.9981 13.6246 16.6522 18.6851 14.2682C21.2153 13.0762 23.7675 11.8749 25.7307 10.952C27.6934 10.0293 29.1116 9.36514 29.2317 9.31206C29.3684 9.25187 29.5043 9.2273 29.6123 9.2218ZM23.7084 15.6878L16.957 24.422L16.9538 24.4255C16.9433 24.4394 16.9333 24.4539 16.9239 24.4688C16.9132 24.4851 16.9033 24.5019 16.8941 24.5192C16.8562 24.59 16.8318 24.6686 16.8227 24.7502C16.8227 24.7517 16.8227 24.7533 16.8227 24.7549L15.9432 29.1038C15.9285 29.0568 15.9183 29.0396 15.9026 28.9842V28.9831C15.6233 27.9961 14.3497 23.3239 14.1735 22.6777L23.7084 15.6878ZM17.7192 25.8532L18.9324 26.8543L17.1499 28.6712L17.7192 25.8532Z" fill="#E6E7FC"/>
</g>
<defs>
<clipPath id="clip0_239_2483">
<rect width="24" height="24" fill="white" transform="translate(7 8)"/>
</clipPath>
</defs>
</svg>
